<?xml version="1.0" encoding="UTF-8" standalone="no"?>
<!DOCTYPE svg PUBLIC "-//W3C//DTD SVG 1.1//EN" "http://www.w3.org/Graphics/SVG/1.1/DTD/svg11.dtd">
<svg width="100%" height="100%" viewBox="0 0 1261 489" version="1.1" xmlns="http://www.w3.org/2000/svg" xmlns:xlink="http://www.w3.org/1999/xlink" xml:space="preserve" xmlns:serif="http://www.serif.com/" style="fill-rule:evenodd;clip-rule:evenodd;stroke-linecap:round;stroke-linejoin:round;stroke-miterlimit:1.5;">
    <g id="Graph" transform="matrix(0.769831,0,0,0.769831,394.714,-529.496)">
        <g transform="matrix(1.29899,0,0,1.29899,-1004.78,-3823.29)">
            <path d="M382.793,3956.79L481.676,3930.51" style="fill:none;stroke:rgb(1,136,0);stroke-width:8px;"/>
        </g>
        <g transform="matrix(1.29899,0,0,1.29899,-1004.78,-3823.29)">
            <path d="M555.449,3910.91L890.874,3821.79L929.001,3895.54L961.465,3881.79" style="fill:none;stroke:rgb(1,136,0);stroke-width:8px;"/>
        </g>
        <g transform="matrix(1.29899,0,0,1.29899,-1004.78,-3823.29)">
            <path d="M1029.91,3852.81L1206.5,3778.04L1251.5,3833.04L1373.15,3771.56" style="fill:none;stroke:rgb(1,136,0);stroke-width:8px;"/>
        </g>
        <g transform="matrix(1.29899,0,0,1.29899,-1004.78,-3823.29)">
            <path d="M1440.47,3737.54L1484,3715.54L1632.75,3476.79L1635.25,3509.29L1632.75,3476.79L1599,3495.01" style="fill:none;stroke:rgb(1,136,0);stroke-width:8px;"/>
        </g>
        <g transform="matrix(1.29899,0,0,1.29899,-1004.78,-3823.29)">
            <path d="M518.563,3883.01L518.563,3823.89L609.728,3823.59L518.563,3823.89L431.528,3824.19" style="fill:none;stroke:rgb(1,136,0);stroke-width:4px;"/>
        </g>
        <g transform="matrix(1.29899,0,0,1.29899,-385.271,-3935.07)">
            <path d="M519.729,3918.22L518.563,3823.89L609.728,3823.59L518.563,3823.89L431.528,3824.19" style="fill:none;stroke:rgb(1,136,0);stroke-width:4px;"/>
        </g>
        <g transform="matrix(1.29899,0,0,1.29899,147.028,-4128.57)">
            <path d="M519.948,3951.8L518.563,3823.89L609.728,3823.59L518.563,3823.89L431.528,3824.19" style="fill:none;stroke:rgb(1,136,0);stroke-width:4px;"/>
        </g>
        <g transform="matrix(1.29899,0,0,1.29899,-780.498,-3843.53)">
            <path d="M345.907,3898.59C363.805,3898.59 378.744,3911.37 382.092,3928.29C382.552,3930.61 382.793,3933.02 382.793,3935.48C382.793,3955.84 366.265,3972.36 345.907,3972.36C329.306,3972.36 315.252,3961.37 310.629,3946.28C310.61,3946.22 310.591,3946.15 310.572,3946.09C309.562,3942.73 309.02,3939.16 309.02,3935.48C309.02,3915.12 325.548,3898.59 345.907,3898.59" style="fill:rgb(23,0,19);fill-opacity:0.49;stroke:rgb(1,136,0);stroke-width:8px;"/>
        </g>
        <g transform="matrix(1.29899,0,0,1.29899,-159.478,-3909.58)">
            <path d="M345.907,3898.59C366.265,3898.59 382.793,3915.12 382.793,3935.48C382.793,3955.84 366.265,3972.36 345.907,3972.36C325.548,3972.36 309.02,3955.84 309.02,3935.48C309.02,3915.12 325.548,3898.59 345.907,3898.59" style="fill:rgb(23,0,19);fill-opacity:0.49;stroke:rgb(1,136,0);stroke-width:8px;"/>
        </g>
        <g transform="matrix(1.29899,0,0,1.29899,373.106,-4059.45)">
            <path d="M345.907,3898.59C366.265,3898.59 382.793,3915.12 382.793,3935.48C382.793,3955.84 366.265,3972.36 345.907,3972.36C325.548,3972.36 309.02,3955.84 309.02,3935.48C309.02,3915.12 325.548,3898.59 345.907,3898.59" style="fill:rgb(23,0,19);fill-opacity:0.49;stroke:rgb(1,136,0);stroke-width:8px;"/>
        </g>
        <g transform="matrix(1.29899,0,0,1.29899,-990.278,-3813.47)">
            <text x="488.311px" y="3923.18px" style="font-family:'Inter-Bold', 'Inter', sans-serif;font-weight:700;font-size:32px;fill:white;">Q1</text>
        </g>
        <g transform="matrix(1.29899,0,0,1.29899,-369.259,-3877.95)">
            <text x="485.817px" y="3923.18px" style="font-family:'Inter-Bold', 'Inter', sans-serif;font-weight:700;font-size:32px;fill:white;">Q2</text>
        </g>
        <g transform="matrix(1.29899,0,0,1.29899,162.048,-4029.4)">
            <text x="485.346px" y="3923.18px" style="font-family:'Inter-Bold', 'Inter', sans-serif;font-weight:700;font-size:32px;fill:white;">Q3</text>
        </g>
    </g>
</svg>
